<svg width="52" height="52" viewBox="0 0 52 52" fill="none" xmlns="http://www.w3.org/2000/svg">
<path d="M15.1667 47.6666C13.9751 47.6666 12.9553 47.2426 12.1074 46.3947C11.2581 45.5454 10.8334 44.5249 10.8334 43.3332C10.8334 42.1416 11.2581 41.1211 12.1074 40.2717C12.9553 39.4239 13.9751 38.9999 15.1667 38.9999C16.3584 38.9999 17.3782 39.4239 18.2261 40.2717C19.0754 41.1211 19.5001 42.1416 19.5001 43.3332C19.5001 44.5249 19.0754 45.5454 18.2261 46.3947C17.3782 47.2426 16.3584 47.6666 15.1667 47.6666ZM36.8334 47.6666C35.6417 47.6666 34.622 47.2426 33.7741 46.3947C32.9247 45.5454 32.5001 44.5249 32.5001 43.3332C32.5001 42.1416 32.9247 41.1211 33.7741 40.2717C34.622 39.4239 35.6417 38.9999 36.8334 38.9999C38.0251 38.9999 39.0456 39.4239 39.8949 40.2717C40.7428 41.1211 41.1667 42.1416 41.1667 43.3332C41.1667 44.5249 40.7428 45.5454 39.8949 46.3947C39.0456 47.2426 38.0251 47.6666 36.8334 47.6666ZM13.3251 12.9999L18.5251 23.8333H33.6917L39.6501 12.9999H13.3251ZM11.2667 8.66658H43.2251C44.0556 8.66658 44.6876 9.03636 45.1209 9.77592C45.5542 10.5169 45.5723 11.2666 45.1751 12.0249L37.4834 25.8916C37.0862 26.6138 36.5532 27.1735 35.8844 27.5708C35.2171 27.968 34.4862 28.1666 33.6917 28.1666H17.5501L15.1667 32.4999H41.1667V36.8332H15.1667C13.5417 36.8332 12.314 36.1197 11.4834 34.6926C10.6529 33.2669 10.6167 31.8499 11.3751 30.4416L14.3001 25.1333L6.50008 8.66658H2.16675V4.33325H9.20841L11.2667 8.66658ZM18.5251 23.8333H33.6917H18.5251Z" fill="#354A9B"/>
</svg>
