<svg width="56" height="56" viewBox="0 0 56 56" fill="none" xmlns="http://www.w3.org/2000/svg">
<path d="M17.332 7.75604C17.6988 6.47924 18.8664 5.60004 20.1936 5.60004H34.8936C36.9236 5.60004 38.3572 7.58804 37.7132 9.51444L37.7076 9.53684L34.174 19.6H41.3532C44.0048 19.6 45.2928 22.8032 43.5008 24.6708L43.4896 24.682L19.1968 49.4844C17.0828 51.674 13.4288 49.6524 14.168 46.6956L17.444 33.5944H13.8964C13.4359 33.5948 12.9816 33.4883 12.5692 33.2831C12.1569 33.078 11.7979 32.7799 11.5204 32.4123C11.243 32.0447 11.0547 31.6177 10.9704 31.1649C10.8862 30.7122 10.9082 30.246 11.0348 29.8032L17.3348 7.75884L17.332 7.75604ZM20.1964 8.40004C20.1585 8.39981 20.1216 8.412 20.0912 8.43475C20.0609 8.45751 20.0388 8.48957 20.0284 8.52604L13.7284 30.5732C13.7004 30.6852 13.7844 30.7972 13.8964 30.7972H19.236C19.4484 30.7974 19.6579 30.8459 19.8488 30.939C20.0396 31.0321 20.2068 31.1674 20.3376 31.3346C20.4685 31.5019 20.5596 31.6967 20.604 31.9044C20.6484 32.112 20.645 32.3271 20.594 32.5332L16.884 47.3732C16.8763 47.4005 16.8735 47.429 16.8756 47.4572C16.8756 47.4684 16.8812 47.4796 16.884 47.488C16.8952 47.5104 16.9204 47.544 16.968 47.572C17.0184 47.6 17.0632 47.6 17.0856 47.6C17.0956 47.598 17.1051 47.5942 17.1136 47.5888C17.1388 47.5761 17.1615 47.559 17.1808 47.5384L17.192 47.5272L41.482 22.7304C41.5074 22.7067 41.5241 22.6752 41.5296 22.6408C41.5343 22.5988 41.5275 22.5562 41.51 22.5176C41.4958 22.4801 41.4716 22.4472 41.44 22.4224C41.426 22.4112 41.4036 22.4 41.356 22.4H32.2C31.9761 22.4002 31.7555 22.3467 31.5566 22.2439C31.3576 22.1412 31.1863 21.9922 31.0568 21.8095C30.9273 21.6269 30.8436 21.4158 30.8125 21.1941C30.7815 20.9724 30.8041 20.7464 30.8784 20.5352L35.0588 8.62404C35.0668 8.59794 35.0684 8.57035 35.0637 8.5435C35.0589 8.51664 35.048 8.49128 35.0316 8.46947C35.0152 8.44765 34.994 8.43 34.9695 8.41794C34.9451 8.40587 34.9181 8.39974 34.8908 8.40004H20.1936H20.1964Z" fill="#354A9B"/>
</svg>
