<svg width="45" height="45" viewBox="0 0 45 45" fill="none" xmlns="http://www.w3.org/2000/svg">
<g clip-path="url(#clip0_2242_17630)">
<path d="M22.5 0C34.9268 0 45 10.0733 45 22.5C45 34.9268 34.9268 45 22.5 45C10.0733 45 0 34.9268 0 22.5C0 10.0733 10.0733 0 22.5 0ZM22.5 3.13875C17.3651 3.13875 12.4405 5.17859 8.80953 8.80953C5.17859 12.4405 3.13875 17.3651 3.13875 22.5C3.13875 27.6349 5.17859 32.5595 8.80953 36.1905C12.4405 39.8214 17.3651 41.8612 22.5 41.8612C27.6349 41.8612 32.5595 39.8214 36.1905 36.1905C39.8214 32.5595 41.8612 27.6349 41.8612 22.5C41.8612 17.3651 39.8214 12.4405 36.1905 8.80953C32.5595 5.17859 27.6349 3.13875 22.5 3.13875ZM27.108 7.848C28.5708 8.40111 29.9387 9.1784 31.1625 10.152C31.4438 10.368 31.7138 10.5975 31.9792 10.8427C32.0288 10.8855 32.0715 10.9305 32.1187 10.9778C32.8568 11.6595 33.5272 12.4268 34.1213 13.2502C34.2045 13.365 34.2922 13.4707 34.3687 13.581C34.5127 13.7925 34.6478 14.013 34.7827 14.2335C35.0149 14.6054 35.2289 14.9884 35.424 15.381C35.5433 15.606 35.649 15.8512 35.7593 16.0898C35.8335 16.254 35.9168 16.4228 35.9842 16.5982C36.1485 17.0077 36.2948 17.4195 36.4275 17.8403C36.4703 17.9797 36.504 18.1283 36.5445 18.2678C36.7727 19.0683 36.9345 19.8863 37.0283 20.7135C37.044 20.862 37.0665 21.0195 37.0778 21.1657C37.1227 21.6495 37.152 22.1378 37.152 22.6283C37.1491 23.5867 37.061 24.5429 36.8888 25.4857C36.8573 25.65 36.8302 25.8165 36.7987 25.974C36.7087 26.4015 36.6053 26.82 36.4837 27.234C35.3385 26.7098 33.993 25.938 33.642 25.0898C33.003 23.5597 31.302 22.7948 30.609 20.8237C29.4683 17.5613 30.9825 17.6467 31.194 15.6217C31.293 14.6722 30.609 14.4742 29.7068 14.8612C27.6007 15.7455 26.8875 15.4058 26.4622 13.8195C26.037 12.2378 26.4622 11.7968 26.4622 11.7968C25.0267 11.9543 24.9728 10.206 25.7175 9.765C26.235 9.468 26.6737 8.55675 27.108 7.848ZM21.0915 17.5432C22.419 16.9357 23.6453 16.7175 23.4832 15.6735C23.3258 14.6407 22.9523 13.8713 20.8778 13.8713C18.8033 13.8713 19.7078 16.7175 18.0068 15.0188C16.3057 13.3313 18.378 13.7677 19.2285 13.383C20.0812 12.996 20.9317 11.4097 19.4422 11.2972C17.955 11.1915 18.2722 11.9542 17.1022 11.5222C15.9323 11.0812 15.4012 13.05 14.6543 12.7755C14.1637 12.591 12.8475 11.5785 11.9745 10.5817C10.1931 12.1312 8.78283 14.0613 7.848 16.2292C8.10225 19.17 9.657 20.7135 9.657 20.7135C9.657 20.7135 10.4558 22.6283 15.2438 24.9817C15.2438 24.9817 16.1437 25.0358 15.0817 23.9445C14.0198 22.8488 12.8475 21.4808 14.1772 20.772C15.5048 20.0543 15.8805 20.115 16.2 21.4312C16.5173 22.7452 17.5837 21.9713 17.6873 20.7135C17.7952 19.4603 19.7617 18.1485 21.0915 17.541V17.5432ZM20.079 24.1583C22.3695 24.1583 22.1558 24.8715 23.9648 26.4645C25.7715 28.0485 24.8153 29.6348 23.9085 30.8407C23.0063 32.0422 22.2075 33.4058 21.7822 35.8763C21.3547 38.3377 20.2388 36.5827 19.8698 35.982C19.4963 35.3768 18.9113 34.8323 19.0732 32.3145C19.2308 29.799 17.5275 31.2795 16.9447 27.9945C16.3598 24.714 17.7952 24.1605 20.0813 24.1605L20.079 24.1583ZM31.2773 26.3273C31.887 25.938 33.3472 26.9528 33.0322 28.0215C32.7105 29.0903 31.7025 28.4873 31.1962 28.0215C30.69 27.558 30.663 26.7098 31.2773 26.3273Z" fill="#354A9B"/>
</g>
<defs>
<clipPath id="clip0_2242_17630">
<rect width="45" height="45" fill="white"/>
</clipPath>
</defs>
</svg>
