<svg width="44" height="44" viewBox="0 0 44 44" fill="none" xmlns="http://www.w3.org/2000/svg">
<g clip-path="url(#clip0_2303_17716)">
<path fill-rule="evenodd" clip-rule="evenodd" d="M28.188 0.937935C28.3274 0.798245 28.4929 0.687416 28.6751 0.611797C28.8574 0.536178 29.0527 0.497253 29.25 0.497253C29.4473 0.497253 29.6427 0.536178 29.8249 0.611797C30.0072 0.687416 30.1727 0.798245 30.312 0.937935L42.312 12.9379C42.4517 13.0773 42.5625 13.2428 42.6382 13.425C42.7138 13.6073 42.7527 13.8026 42.7527 13.9999C42.7527 14.1972 42.7138 14.3926 42.6382 14.5748C42.5625 14.7571 42.4517 14.9226 42.312 15.0619L36.606 20.7679L34.119 30.7069C33.9299 31.4637 33.5473 32.1584 33.0087 32.7227C32.4702 33.287 31.7942 33.7017 31.047 33.9259L0.0120239 43.2379L9.32402 12.1999C9.54848 11.4537 9.96286 10.7786 10.5266 10.2406C11.0903 9.70262 11.7841 9.32025 12.54 9.13094L22.479 6.64693L28.188 0.937935ZM22.788 9.66193L13.269 12.0409C13.0163 12.104 12.7844 12.2318 12.5961 12.4117C12.4078 12.5916 12.2696 12.8174 12.195 13.0669L4.48502 38.7619L30.186 31.0519C30.4341 30.9768 30.6584 30.8386 30.8372 30.6509C31.016 30.4632 31.143 30.2324 31.206 29.9809L33.588 20.4589L22.788 9.65893V9.66193Z" fill="#354A9B"/>
<path fill-rule="evenodd" clip-rule="evenodd" d="M4.7461 38.684L20.2501 26C20.8434 26 21.4235 25.8241 21.9168 25.4944C22.4102 25.1648 22.7947 24.6962 23.0217 24.1481C23.2488 23.5999 23.3082 22.9967 23.1925 22.4147C23.0767 21.8328 22.791 21.2982 22.3714 20.8787C21.9519 20.4591 21.4173 20.1734 20.8354 20.0576C20.2534 19.9419 19.6502 20.0013 19.102 20.2284C18.5539 20.4554 18.0853 20.8399 17.7557 21.3333C17.426 21.8266 17.2501 22.4067 17.2501 23L4.5661 38.504L4.4881 38.762L4.7461 38.684V38.684Z" fill="#354A9B"/>
</g>
<defs>
<clipPath id="clip0_2303_17716">
<rect width="43.5" height="43.5" fill="white"/>
</clipPath>
</defs>
</svg>
