<svg width="45" height="45" viewBox="0 0 45 45" fill="none" xmlns="http://www.w3.org/2000/svg">
<path fill-rule="evenodd" clip-rule="evenodd" d="M43.9716 7.90956L41.4853 7.32306L34.7661 14.0041L30.9602 10.1281L37.5137 3.25262L36.9399 0.728122C35.5551 0.264819 34.1066 0.0196411 32.6464 0.00137169C31.0535 -0.0231235 29.4726 0.280687 28.0022 0.893872C26.5825 1.5365 25.2992 2.44542 24.2218 3.57137C23.0225 4.70744 22.0727 6.0806 21.4328 7.60356C20.2006 10.6345 20.2006 14.0267 21.4328 17.0577C14.7876 23.5952 8.2282 30.2194 1.75631 36.9286C1.08694 37.8051 0.768188 38.8984 0.851063 39.9981C0.91638 41.1809 1.44829 42.2894 2.33006 43.0804C2.72531 43.5107 3.19706 43.8677 3.723 44.1259C4.26488 44.365 4.84819 44.5021 5.43788 44.5307C6.44513 44.5116 7.41094 44.1291 8.16 43.4566C13.0943 38.8124 22.5484 29.2722 27.9193 23.6813C29.376 24.2997 30.9411 24.6184 32.5221 24.6152C34.1135 24.614 35.6886 24.2938 37.1542 23.6735C38.6198 23.0532 39.9462 22.1454 41.055 21.0038C43.3326 18.6809 44.6047 15.5551 44.5963 12.3019C44.6332 10.8133 44.422 9.32889 43.9716 7.90956V7.90956ZM6.23156 41.1966C6.10888 41.3056 5.96099 41.3823 5.80125 41.4197C5.64411 41.4469 5.48346 41.4469 5.32631 41.4197C5.16155 41.3946 5.00462 41.3325 4.86731 41.2381C4.71997 41.1518 4.59539 41.0316 4.50394 40.8874C4.05769 40.4316 3.64013 39.5646 4.05769 39.0769C8.42456 34.4327 17.4165 25.3547 23.0393 19.8053C23.358 20.2261 23.7086 20.6277 24.0848 21.0038C24.4609 21.3959 24.8657 21.7592 25.296 22.0907C19.8581 27.6689 10.9905 36.6385 6.23475 41.1966H6.23156ZM41.6702 12.3019C41.6766 14.7404 40.7267 17.0832 39.0182 18.8299C37.3133 20.5024 35.0203 21.4393 32.632 21.4393C30.2438 21.4393 27.9508 20.5024 26.2459 18.8299C24.9963 17.5259 24.1427 15.8939 23.7844 14.1237C23.4261 12.3536 23.5778 10.5181 24.2218 8.83075C24.6505 7.6824 25.3155 6.63681 26.1736 5.7616C27.0318 4.88639 28.0642 4.20104 29.2039 3.74987C30.286 3.29695 31.4478 3.06503 32.6209 3.06775H33.4305L27.6388 9.03793V11.2564L33.6791 17.2681H35.7829L41.6702 11.4796V12.3019V12.3019ZM7.21013 18.1191H12.0902L14.3374 20.4046L16.4985 18.2562L14.3788 16.0951V15.958L14.5605 10.7018L13.8593 9.30887L4.743 3.31L2.85919 3.52037L0.210375 6.22656L0 8.13587L5.85863 17.437L7.21013 18.1223V18.1191ZM4.19794 6.54212L11.5738 11.3999L11.4495 14.9794H8.01975L3.264 7.45056L4.19794 6.54212V6.54212ZM26.8451 28.7271L28.9935 26.5819L38.8939 36.7341C39.7278 37.6105 40.1929 38.774 40.1929 39.9838C40.1929 41.1935 39.7278 42.357 38.8939 43.2334C38.2668 43.8772 37.4605 44.3172 36.5799 44.4963C35.6993 44.6754 34.7851 44.5852 33.9564 44.2375C33.4276 44.0029 32.9532 43.661 32.5635 43.2334L22.5484 33.0239L24.7127 30.8627L34.6959 41.0436C34.8302 41.1917 34.9972 41.3063 35.1836 41.3783C35.5505 41.5273 35.9611 41.5273 36.3279 41.3783C36.5143 41.3062 36.6813 41.1916 36.8156 41.0436C36.9551 40.9054 37.0638 40.7392 37.1344 40.5559C37.2075 40.3689 37.2464 40.1702 37.2491 39.9694C37.2459 39.769 37.2082 39.5706 37.1376 39.3829C37.067 39.1997 36.9583 39.0335 36.8188 38.8952L26.8451 28.7271Z" fill="#354A9B"/>
</svg>
