<svg width="45" height="39" viewBox="0 0 45 39" fill="none" xmlns="http://www.w3.org/2000/svg">
<path d="M16.0779 6.42214C16.0779 4.71888 16.7545 3.08539 17.9589 1.881C19.1632 0.676616 20.7967 0 22.5 0C24.2033 0 25.8368 0.676616 27.0411 1.881C28.2455 3.08539 28.9221 4.71888 28.9221 6.42214C28.9221 8.1254 28.2455 9.7589 27.0411 10.9633C25.8368 12.1677 24.2033 12.8443 22.5 12.8443C20.7967 12.8443 19.1632 12.1677 17.9589 10.9633C16.7545 9.7589 16.0779 8.1254 16.0779 6.42214V6.42214ZM22.5 3.21429C22.0787 3.21429 21.6616 3.29726 21.2724 3.45847C20.8832 3.61968 20.5296 3.85597 20.2317 4.15385C19.9338 4.45172 19.6975 4.80535 19.5363 5.19455C19.3751 5.58374 19.2921 6.00088 19.2921 6.42214C19.2921 6.8434 19.3751 7.26054 19.5363 7.64974C19.6975 8.03893 19.9338 8.39256 20.2317 8.69044C20.5296 8.98832 20.8832 9.22461 21.2724 9.38582C21.6616 9.54703 22.0787 9.63 22.5 9.63C23.3508 9.63 24.1667 9.29203 24.7683 8.69044C25.3699 8.08885 25.7079 7.27292 25.7079 6.42214C25.7079 5.57137 25.3699 4.75543 24.7683 4.15385C24.1667 3.55226 23.3508 3.21429 22.5 3.21429V3.21429ZM32.1429 8.02929C32.1429 7.39613 32.2676 6.76917 32.5099 6.1842C32.7522 5.59924 33.1073 5.06773 33.555 4.62002C34.0027 4.17231 34.5342 3.81717 35.1192 3.57487C35.7042 3.33257 36.3311 3.20786 36.9643 3.20786C37.5974 3.20786 38.2244 3.33257 38.8094 3.57487C39.3943 3.81717 39.9258 4.17231 40.3735 4.62002C40.8213 5.06773 41.1764 5.59924 41.4187 6.1842C41.661 6.76917 41.7857 7.39613 41.7857 8.02929C41.7857 9.30801 41.2777 10.5344 40.3735 11.4386C39.4694 12.3427 38.243 12.8507 36.9643 12.8507C35.6856 12.8507 34.4592 12.3427 33.555 11.4386C32.6508 10.5344 32.1429 9.30801 32.1429 8.02929ZM36.9643 6.42214C36.538 6.42214 36.1293 6.59147 35.8279 6.89286C35.5265 7.19426 35.3571 7.60304 35.3571 8.02929C35.3571 8.45553 35.5265 8.86431 35.8279 9.16571C36.1293 9.4671 36.538 9.63643 36.9643 9.63643C37.3905 9.63643 37.7993 9.4671 38.1007 9.16571C38.4021 8.86431 38.5714 8.45553 38.5714 8.02929C38.5714 7.60304 38.4021 7.19426 38.1007 6.89286C37.7993 6.59147 37.3905 6.42214 36.9643 6.42214ZM8.03571 3.20786C6.75699 3.20786 5.53064 3.71583 4.62645 4.62002C3.72226 5.52421 3.21429 6.75056 3.21429 8.02929C3.21429 9.30801 3.72226 10.5344 4.62645 11.4386C5.53064 12.3427 6.75699 12.8507 8.03571 12.8507C9.31444 12.8507 10.5408 12.3427 11.445 11.4386C12.3492 10.5344 12.8571 9.30801 12.8571 8.02929C12.8571 6.75056 12.3492 5.52421 11.445 4.62002C10.5408 3.71583 9.31444 3.20786 8.03571 3.20786ZM6.42857 8.02929C6.42857 7.60304 6.5979 7.19426 6.89929 6.89286C7.20069 6.59147 7.60947 6.42214 8.03571 6.42214C8.46196 6.42214 8.87074 6.59147 9.17214 6.89286C9.47353 7.19426 9.64286 7.60304 9.64286 8.02929C9.64286 8.45553 9.47353 8.86431 9.17214 9.16571C8.87074 9.4671 8.46196 9.63643 8.03571 9.63643C7.60947 9.63643 7.20069 9.4671 6.89929 9.16571C6.5979 8.86431 6.42857 8.45553 6.42857 8.02929ZM10.5043 16.065C9.93859 17.0417 9.64139 18.1506 9.64286 19.2793H3.21429V27.315C3.21403 28.1145 3.41259 28.9015 3.79211 29.6052C4.17163 30.3089 4.72018 30.9072 5.38839 31.3462C6.0566 31.7852 6.82349 32.0511 7.62003 32.12C8.41656 32.189 9.21774 32.0587 9.95143 31.7411C10.1893 32.805 10.5621 33.8207 11.0443 34.7689C9.82435 35.2615 8.50214 35.447 7.19375 35.3092C5.88537 35.1713 4.63085 34.7143 3.54035 33.9783C2.44985 33.2423 1.55674 32.2499 0.939448 31.088C0.322155 29.9262 -0.000437296 28.6306 4.449e-07 27.315V19.2793C4.449e-07 18.4268 0.338647 17.6092 0.941443 17.0064C1.54424 16.4036 2.3618 16.065 3.21429 16.065H10.5043ZM33.9557 34.7689C35.1756 35.2615 36.4979 35.447 37.8062 35.3092C39.1146 35.1713 40.3692 34.7143 41.4596 33.9783C42.5501 33.2423 43.4433 32.2499 44.0606 31.088C44.6778 29.9262 45.0004 28.6306 45 27.315V19.2793C45 18.4268 44.6614 17.6092 44.0586 17.0064C43.4558 16.4036 42.6382 16.065 41.7857 16.065H34.4957C35.0421 17.01 35.3571 18.1061 35.3571 19.2793H41.7857V27.315C41.786 28.1145 41.5874 28.9015 41.2079 29.6052C40.8284 30.3089 40.2798 30.9072 39.6116 31.3462C38.9434 31.7852 38.1765 32.0511 37.38 32.12C36.5834 32.189 35.7823 32.0587 35.0486 31.7411C34.8075 32.805 34.4379 33.8207 33.9557 34.7689V34.7689ZM16.0714 16.0618C15.2189 16.0618 14.4014 16.4004 13.7986 17.0032C13.1958 17.606 12.8571 18.4236 12.8571 19.2761V28.9221C12.8571 31.4796 13.8731 33.9323 15.6815 35.7407C17.4899 37.5491 19.9426 38.565 22.5 38.565C25.0574 38.565 27.5101 37.5491 29.3185 35.7407C31.1269 33.9323 32.1429 31.4796 32.1429 28.9221V19.2793C32.1429 18.4268 31.8042 17.6092 31.2014 17.0064C30.5986 16.4036 29.7811 16.065 28.9286 16.065H16.0714V16.0618ZM16.0714 19.2761H28.9286V28.9221C28.9286 30.6271 28.2513 32.2622 27.0457 33.4678C25.8401 34.6734 24.205 35.3507 22.5 35.3507C20.795 35.3507 19.1599 34.6734 17.9543 33.4678C16.7487 32.2622 16.0714 30.6271 16.0714 28.9221V19.2793V19.2761Z" fill="#354A9B"/>
</svg>
