<svg width="59" height="59" viewBox="0 0 59 59" fill="none" xmlns="http://www.w3.org/2000/svg">
<path fill-rule="evenodd" clip-rule="evenodd" d="M32.3799 18.4055C33.8427 18.4055 35.2455 17.8245 36.2798 16.7902C37.3141 15.7558 37.8952 14.353 37.8952 12.8903C37.8952 11.4275 37.3141 10.0247 36.2798 8.99039C35.2455 7.95607 33.8427 7.375 32.3799 7.375C30.9172 7.375 29.5144 7.95607 28.4801 8.99039C27.4457 10.0247 26.8647 11.4275 26.8647 12.8903C26.8647 14.353 27.4457 15.7558 28.4801 16.7902C29.5144 17.8245 30.9172 18.4055 32.3799 18.4055V18.4055ZM32.3799 15.9472C32.7814 15.9472 33.1789 15.8681 33.5498 15.7145C33.9207 15.5609 34.2577 15.3357 34.5415 15.0519C34.8254 14.768 35.0506 14.431 35.2042 14.0601C35.3578 13.6892 35.4369 13.2917 35.4369 12.8903C35.4369 12.4888 35.3578 12.0913 35.2042 11.7204C35.0506 11.3495 34.8254 11.0126 34.5415 10.7287C34.2577 10.4448 33.9207 10.2197 33.5498 10.066C33.1789 9.9124 32.7814 9.83333 32.3799 9.83333C31.5692 9.83333 30.7916 10.1554 30.2184 10.7287C29.6451 11.302 29.323 12.0795 29.323 12.8903C29.323 13.701 29.6451 14.4786 30.2184 15.0519C30.7916 15.6251 31.5692 15.9472 32.3799 15.9472V15.9472ZM12.2917 34.4167C11.6397 34.4167 11.0144 34.6757 10.5534 35.1367C10.0923 35.5977 9.83333 36.223 9.83333 36.875V51.625H7.375V36.875C7.375 35.571 7.893 34.3204 8.81506 33.3984C9.73711 32.4763 10.9877 31.9583 12.2917 31.9583H20.7864C20.1792 25.7756 21.4748 20.7938 25.2495 18.7681C25.2972 18.7428 25.3465 18.7206 25.397 18.7018L25.4265 18.6895C27.0318 18.0933 28.7613 18.1265 30.3149 18.9304C31.7924 19.6937 32.7868 20.9831 33.4112 22.3229C33.6423 22.817 33.8549 23.2792 34.0541 23.7119C34.4598 24.6074 34.8803 25.4962 35.3152 26.3779C35.8499 27.4411 36.2371 28.0545 36.5739 28.4466C36.8578 28.7785 37.0975 28.9407 37.4048 29.0612C37.7735 29.205 38.3881 29.3427 39.5054 29.3759C40.2311 29.3978 40.9278 29.6651 41.4819 30.1342C42.036 30.6032 42.4147 31.2463 42.5562 31.9583H46.7083C48.0123 31.9583 49.2629 32.4763 50.1849 33.3984C51.107 34.3204 51.625 35.571 51.625 36.875V51.625H49.1667V36.875C49.1667 36.223 48.9077 35.5977 48.4466 35.1367C47.9856 34.6757 47.3603 34.4167 46.7083 34.4167H42.0412C41.7365 34.8545 41.3274 35.2093 40.8509 35.4491C40.3744 35.6888 39.8456 35.8059 39.3124 35.7896C37.8079 35.7442 36.3833 35.5512 35.0706 35.0374C34.631 34.8666 34.2067 34.6589 33.8021 34.4167H31.1889L31.184 34.4449L35.9531 39.1502C36.2727 39.4661 36.5222 39.8447 36.6857 40.2614L39.4267 47.243C39.5807 47.6353 39.656 48.054 39.6481 48.4753C39.6403 48.8966 39.5496 49.3123 39.3811 49.6985C39.2126 50.0848 38.9697 50.434 38.6663 50.7264C38.3628 51.0188 38.0047 51.2485 37.6125 51.4025C37.2203 51.5565 36.8015 51.6317 36.3802 51.6239C35.9589 51.6161 35.5433 51.5253 35.157 51.3569C34.7708 51.1884 34.4215 50.9455 34.1291 50.642C33.8367 50.3386 33.607 49.9805 33.453 49.5883L30.9615 43.2396L22.3118 34.7043C22.2201 34.6137 22.1339 34.5176 22.0537 34.4167H12.2917V34.4167ZM25.52 34.4167L32.8741 41.6737C32.9966 41.7942 33.0925 41.9391 33.1555 42.099L35.7417 48.6897C35.7776 48.7814 35.8312 48.8651 35.8995 48.9361C35.9678 49.0071 36.0494 49.0639 36.1396 49.1033C36.2298 49.1428 36.3269 49.164 36.4254 49.1659C36.5238 49.1678 36.6217 49.1503 36.7134 49.1144C36.805 49.0785 36.8888 49.0249 36.9597 48.9566C37.0307 48.8884 37.0875 48.8068 37.1269 48.7165C37.1664 48.6263 37.1877 48.5292 37.1896 48.4308C37.1915 48.3323 37.174 48.2345 37.138 48.1428L34.397 41.1611C34.3589 41.0632 34.3007 40.9745 34.2261 40.9005L28.9899 35.7331C28.846 35.5912 28.7393 35.416 28.6793 35.2231C28.6193 35.0301 28.6077 34.8253 28.6457 34.6269L28.6863 34.4167H25.52V34.4167ZM29.1571 31.9583L29.7274 28.9727C29.7752 28.7221 29.8997 28.4926 30.0837 28.316C30.2678 28.1394 30.5022 28.0244 30.7545 27.987C31.0068 27.9496 31.2645 27.9916 31.4919 28.1072C31.7193 28.2228 31.9051 28.4063 32.0235 28.6322C32.5176 29.5738 33.0105 30.3727 33.5698 31.0254C34.2372 31.801 34.9981 32.3701 35.9642 32.7475C36.9168 33.1199 38.0316 33.292 39.3862 33.3325C39.585 33.3386 39.7782 33.2654 39.923 33.129C40.0679 32.9927 40.1527 32.8043 40.1587 32.6055C40.1648 32.4066 40.0915 32.2135 39.9552 32.0686C39.8188 31.9238 39.6305 31.839 39.4317 31.833C38.1669 31.7961 37.2413 31.6363 36.5099 31.3511C35.7946 31.0709 35.2304 30.6566 34.708 30.0482C34.1733 29.425 33.6804 28.5978 33.1187 27.4829C32.6735 26.5809 32.2432 25.6716 31.828 24.7554L31.8219 24.7407C31.6228 24.308 31.4114 23.8495 31.1827 23.3603C30.7156 22.3585 30.047 21.5596 29.1853 21.1134C28.3237 20.6684 27.3416 20.6168 26.3423 20.972C24.0069 22.2823 22.629 25.8383 23.2472 31.8551C23.2509 31.89 23.2575 31.9245 23.2669 31.9583H29.1571V31.9583Z" fill="#354A9B"/>
<path fill-rule="evenodd" clip-rule="evenodd" d="M22.8096 37.9812C22.6575 37.8353 22.4704 37.7309 22.2663 37.6781C22.0622 37.6253 21.8479 37.626 21.6441 37.6799C21.4403 37.7338 21.2538 37.8393 21.1025 37.9861C20.9512 38.133 20.8403 38.3163 20.7803 38.5184L19.572 42.5967L17.2145 46.1478C16.6794 46.9627 16.4887 47.9562 16.6842 48.9113C16.8797 49.8663 17.4454 50.7051 18.2576 51.2442C19.0698 51.7833 20.0625 51.9788 21.0184 51.788C21.9744 51.5973 22.816 51.0357 23.3591 50.2262L26.0227 46.2142C26.2256 45.9084 26.3818 45.5741 26.4861 45.2222L27.1302 43.0466C27.1941 42.8305 27.1975 42.601 27.1398 42.3831C27.0822 42.1653 26.9657 41.9674 26.8032 41.8113L22.8096 37.9812ZM21.8755 43.4719L22.5638 41.1512L24.5612 43.0663L24.1285 44.5241C24.0941 44.6413 24.0423 44.7528 23.9749 44.8547L21.3113 48.8667C21.222 49.0013 21.1071 49.1169 20.9732 49.207C20.8392 49.2972 20.6888 49.3601 20.5306 49.3921C20.3723 49.4241 20.2093 49.4246 20.0508 49.3936C19.8924 49.3627 19.7416 49.3008 19.607 49.2115C19.4725 49.1222 19.3569 49.0073 19.2667 48.8734C19.1766 48.7394 19.1137 48.589 19.0817 48.4308C19.0497 48.2725 19.0491 48.1095 19.0801 47.9511C19.1111 47.7926 19.173 47.6418 19.2623 47.5073L21.7218 43.8026C21.7899 43.7003 21.8421 43.5885 21.8767 43.4707L21.8755 43.4719Z" fill="#354A9B"/>
</svg>
