<svg width="45" height="45" viewBox="0 0 45 45" fill="none" xmlns="http://www.w3.org/2000/svg">
<path d="M17.3125 9.15625C17.3125 11.3194 16.4532 13.394 14.9236 14.9236C13.394 16.4532 11.3194 17.3125 9.15625 17.3125C6.99308 17.3125 4.9185 16.4532 3.38891 14.9236C1.85932 13.394 1 11.3194 1 9.15625C1 6.99308 1.85932 4.9185 3.38891 3.38891C4.9185 1.85932 6.99308 1 9.15625 1C11.3194 1 13.394 1.85932 14.9236 3.38891C16.4532 4.9185 17.3125 6.99308 17.3125 9.15625ZM3.71875 9.15625C3.71875 10.5984 4.29163 11.9814 5.31136 13.0011C6.33109 14.0209 7.71414 14.5938 9.15625 14.5938C10.5984 14.5938 11.9814 14.0209 13.0011 13.0011C14.0209 11.9814 14.5938 10.5984 14.5938 9.15625C14.5938 7.71414 14.0209 6.33109 13.0011 5.31136C11.9814 4.29163 10.5984 3.71875 9.15625 3.71875C7.71414 3.71875 6.33109 4.29163 5.31136 5.31136C4.29163 6.33109 3.71875 7.71414 3.71875 9.15625Z" fill="#354A9B"/>
<path d="M25.4688 17.3125H26.8281C28.147 17.3123 29.4209 17.7915 30.4127 18.6608C31.4046 19.5301 32.0466 20.7302 32.2194 22.0377L40.6747 18.2804C41.0886 18.096 41.542 18.0179 41.9937 18.0533C42.4454 18.0887 42.8811 18.2365 43.2612 18.4831C43.6413 18.7297 43.9537 19.0674 44.17 19.4655C44.3864 19.8636 44.4998 20.3095 44.5 20.7626V41.0499C44.4996 41.5026 44.3862 41.9481 44.1699 42.3459C43.9537 42.7437 43.6416 43.0812 43.2619 43.3277C42.8822 43.5743 42.4469 43.7221 41.9956 43.7578C41.5443 43.7935 41.0912 43.7159 40.6774 43.5321L32.2194 39.7748C32.0466 41.0823 31.4046 42.2824 30.4127 43.1517C29.4209 44.021 28.147 44.5002 26.8281 44.5H6.4375C4.99539 44.5 3.61234 43.9271 2.59261 42.9074C1.57288 41.8877 1 40.5046 1 39.0625V22.75C1 21.3079 1.57288 19.9248 2.59261 18.9051C3.61234 17.8854 4.99539 17.3125 6.4375 17.3125H25.4688ZM41.7812 20.7653L32.2656 24.993V36.8195L41.7812 41.0499V20.7653ZM3.71875 22.75V39.0625C3.71875 39.7836 4.00519 40.4751 4.51505 40.9849C5.02492 41.4948 5.71644 41.7812 6.4375 41.7812H26.8281C27.5492 41.7812 28.2407 41.4948 28.7506 40.9849C29.2604 40.4751 29.5469 39.7836 29.5469 39.0625V22.75C29.5469 22.0289 29.2604 21.3374 28.7506 20.8276C28.2407 20.3177 27.5492 20.0312 26.8281 20.0312H6.4375C5.71644 20.0312 5.02492 20.3177 4.51505 20.8276C4.00519 21.3374 3.71875 22.0289 3.71875 22.75Z" fill="#354A9B"/>
<path d="M25.4688 17.3125C27.6319 17.3125 29.7065 16.4532 31.2361 14.9236C32.7657 13.394 33.625 11.3194 33.625 9.15625C33.625 6.99308 32.7657 4.9185 31.2361 3.38891C29.7065 1.85932 27.6319 1 25.4688 1C23.3056 1 21.231 1.85932 19.7014 3.38891C18.1718 4.9185 17.3125 6.99308 17.3125 9.15625C17.3125 11.3194 18.1718 13.394 19.7014 14.9236C21.231 16.4532 23.3056 17.3125 25.4688 17.3125ZM20.0312 9.15625C20.0312 7.71414 20.6041 6.33109 21.6239 5.31136C22.6436 4.29163 24.0266 3.71875 25.4688 3.71875C26.9109 3.71875 28.2939 4.29163 29.3136 5.31136C30.3334 6.33109 30.9062 7.71414 30.9062 9.15625C30.9062 10.5984 30.3334 11.9814 29.3136 13.0011C28.2939 14.0209 26.9109 14.5938 25.4688 14.5938C24.0266 14.5938 22.6436 14.0209 21.6239 13.0011C20.6041 11.9814 20.0312 10.5984 20.0312 9.15625Z" fill="#354A9B"/>
<path d="M17.3125 9.15625C17.3125 11.3194 16.4532 13.394 14.9236 14.9236C13.394 16.4532 11.3194 17.3125 9.15625 17.3125C6.99308 17.3125 4.9185 16.4532 3.38891 14.9236C1.85932 13.394 1 11.3194 1 9.15625C1 6.99308 1.85932 4.9185 3.38891 3.38891C4.9185 1.85932 6.99308 1 9.15625 1C11.3194 1 13.394 1.85932 14.9236 3.38891C16.4532 4.9185 17.3125 6.99308 17.3125 9.15625ZM17.3125 9.15625C17.3125 6.99308 18.1718 4.9185 19.7014 3.38891C21.231 1.85932 23.3056 1 25.4688 1C27.6319 1 29.7065 1.85932 31.2361 3.38891C32.7657 4.9185 33.625 6.99308 33.625 9.15625C33.625 11.3194 32.7657 13.394 31.2361 14.9236C29.7065 16.4532 27.6319 17.3125 25.4688 17.3125M17.3125 9.15625C17.3125 11.3194 18.1718 13.394 19.7014 14.9236C21.231 16.4532 23.3056 17.3125 25.4688 17.3125M25.4688 17.3125H26.8281C28.147 17.3123 29.4209 17.7915 30.4127 18.6608C31.4046 19.5301 32.0466 20.7302 32.2194 22.0377L40.6747 18.2804C41.0886 18.096 41.542 18.0179 41.9937 18.0533C42.4454 18.0887 42.8811 18.2365 43.2612 18.4831C43.6413 18.7297 43.9537 19.0674 44.17 19.4655C44.3864 19.8636 44.4998 20.3095 44.5 20.7626V41.0499C44.4996 41.5026 44.3862 41.9481 44.1699 42.3459C43.9537 42.7437 43.6416 43.0812 43.2619 43.3277C42.8822 43.5743 42.4469 43.7221 41.9956 43.7578C41.5443 43.7935 41.0912 43.7159 40.6774 43.5321L32.2194 39.7748C32.0466 41.0823 31.4046 42.2824 30.4127 43.1517C29.4209 44.021 28.147 44.5002 26.8281 44.5H6.4375C4.99539 44.5 3.61234 43.9271 2.59261 42.9074C1.57288 41.8877 1 40.5046 1 39.0625V22.75C1 21.3079 1.57288 19.9248 2.59261 18.9051C3.61234 17.8854 4.99539 17.3125 6.4375 17.3125H25.4688ZM3.71875 9.15625C3.71875 10.5984 4.29163 11.9814 5.31136 13.0011C6.33109 14.0209 7.71414 14.5937 9.15625 14.5938C10.5984 14.5937 11.9814 14.0209 13.0011 13.0011C14.0209 11.9814 14.5937 10.5984 14.5938 9.15625C14.5937 7.71414 14.0209 6.33109 13.0011 5.31136C11.9814 4.29163 10.5984 3.71875 9.15625 3.71875C7.71414 3.71875 6.33109 4.29163 5.31136 5.31136C4.29163 6.33109 3.71875 7.71414 3.71875 9.15625ZM41.7812 20.7653L32.2656 24.993V36.8195L41.7812 41.0499V20.7653ZM3.71875 22.75V39.0625C3.71875 39.7836 4.00519 40.4751 4.51505 40.9849C5.02492 41.4948 5.71644 41.7812 6.4375 41.7812H26.8281C27.5492 41.7812 28.2407 41.4948 28.7506 40.9849C29.2604 40.4751 29.5469 39.7836 29.5469 39.0625V22.75C29.5469 22.0289 29.2604 21.3374 28.7506 20.8276C28.2407 20.3177 27.5492 20.0312 26.8281 20.0312H6.4375C5.71644 20.0312 5.02492 20.3177 4.51505 20.8276C4.00519 21.3374 3.71875 22.0289 3.71875 22.75ZM20.0312 9.15625C20.0312 7.71414 20.6041 6.33109 21.6239 5.31136C22.6436 4.29163 24.0266 3.71875 25.4688 3.71875C26.9109 3.71875 28.2939 4.29163 29.3136 5.31136C30.3334 6.33109 30.9063 7.71414 30.9062 9.15625C30.9063 10.5984 30.3334 11.9814 29.3136 13.0011C28.2939 14.0209 26.9109 14.5937 25.4688 14.5938C24.0266 14.5937 22.6436 14.0209 21.6239 13.0011C20.6041 11.9814 20.0313 10.5984 20.0312 9.15625Z" stroke="#354A9B" stroke-width="0.7"/>
</svg>
